<svg width="0" height="0" class="hidden">
  <symbol xmlns="http://www.w3.org/2000/svg" viewBox="0 0 10 6" id="vector">
    <path d="M1.942.587A.7.7 0 001.02 1.64L1.942.587zm3.186 3.727l-.461.526.461.405.462-.405-.462-.526zm4.11-2.675A.7.7 0 108.313.587l.923 1.052zm-8.22 0l3.649 3.2.923-1.052-3.648-3.2L1.02 1.64zm4.572 3.2l3.647-3.2L8.314.587l-3.647 3.2.923 1.053z" fill="#fff"></path>
  </symbol>
  <symbol xmlns="http://www.w3.org/2000/svg" viewBox="0 0 31 31" id="xbox">
    <path d="M10.551 3.158a22.244 22.244 0 014.56 2.444c.164.112.351.17.54.17a.963.963 0 00.539-.17 22.271 22.271 0 014.559-2.45.935.935 0 00.593-.878.925.925 0 00-.605-.868C17.57.205 13.731.205 10.57 1.406a.944.944 0 00-.018 1.752z" fill="#FFB548"></path>
    <path d="M24.159 3.164a.94.94 0 00-1.004-.041 40.987 40.987 0 00-5.052 3.434.942.942 0 00-.064 1.412c3.32 3.16 7.92 12.847 8.977 17.3-2.288-3.867-7.393-12.969-10.732-16.08a.942.942 0 00-1.279 0C11.661 12.3 6.574 21.406 4.285 25.28c1.056-4.453 5.645-14.152 8.966-17.31a.934.934 0 00-.059-1.412A41.436 41.436 0 008.14 3.123a.941.941 0 00-1.003.04A14.992 14.992 0 00.624 15.507a14.85 14.85 0 003.661 9.775 14.897 14.897 0 0011.36 5.228c4.395 0 8.537-1.905 11.371-5.234a14.848 14.848 0 003.65-9.769 15 15 0 00-6.507-12.342z" fill="#FFB548"></path>
  </symbol>

  <symbol xmlns="http://www.w3.org/2000/svg" viewBox="0 0 31 31" id="steam">
    <path fill-rule="evenodd" clip-rule="evenodd" d="M15.774 30.509c8.32 0 15.063-6.716 15.063-15 0-8.284-6.743-15-15.063-15-8.318 0-15.062 6.716-15.062 15 0 1.528.229 3.003.655 4.392.11.019.285.064.542.138l-.4-6.272c0-.115.194-.17.372-.221.098-.028.191-.054.245-.088.145-.092 3.137.996 3.296 1.068l3.826 1.723a4.932 4.932 0 013.332-.702l3.477-4.222c.043-3.37 2.803-6.084 6.198-6.089 3.172.034 5.801 2.44 6.102 5.574.32 3.389-2.18 6.392-5.589 6.715l-5.791 4.116a5.121 5.121 0 01-3.405 3.87c-2.687.905-5.607-.53-6.513-3.206l-2.014-.665c-.15-.047-2.891-1.182-3.634-1.6a15.063 15.063 0 0014.364 10.47zm9.58-19.112a3.09 3.09 0 01-3.099 3.08 3.09 3.09 0 01-3.1-3.08 3.09 3.09 0 013.1-3.08 3.09 3.09 0 013.1 3.08zm-1.03 0a2.062 2.062 0 01-2.068 2.056 2.062 2.062 0 01-2.068-2.056c0-1.135.926-2.055 2.068-2.055s2.067.92 2.067 2.055zM10.58 23.412c.417.202.877.308 1.342.308.353 0 .697-.058 1.036-.168a3.074 3.074 0 00.33-5.685.518.518 0 00-.693.236.512.512 0 00.237.688 2.045 2.045 0 01.988 2.816 2.07 2.07 0 01-2.784.88.518.518 0 00-.693.237.512.512 0 00.237.688z" fill="#FFB548"></path>
  </symbol>
</svg>